<svg height="496pt" viewBox="0 0 496 496" width="496pt" xmlns="http://www.w3.org/2000/svg"><path d="m248 240c-8.824219 0-16-7.175781-16-16h-16c0 17.648438 14.351562 32 32 32s32-14.351562 32-32h-16c0 8.824219-7.175781 16-16 16zm0 0"/><path d="m461.785156 122.230469-.113281.066406c-2.472656-8.871094-6.96875-18.929687-13.671875-23.617187v-42.679688c0-22.054688-17.945312-40-40-40h-8c0-8.824219-7.175781-16-16-16h-272c-8.824219 0-16 7.175781-16 16v16c0 6.015625 3.367188 11.191406 8.28125 13.929688-65.519531 46.566406-104.28125 121.09375-104.28125 202.070312 0 136.742188 111.257812 248 248 248s248-111.257812 248-248c0-44.3125-11.832031-87.800781-34.214844-125.769531zm-13.785156 13.769531c0 4.40625-3.59375 8-8 8s-8-3.59375-8-8c0-6.609375 4.566406-19.488281 8-23.328125 3.433594 3.839844 8 16.71875 8 23.328125zm-336-120h272v16h-272l-.007812-16zm176 440c0-13.230469 10.769531-24 24-24h77.070312c-26.65625 20.480469-57.847656 35.3125-91.804687 42.679688-5.699219-4.511719-9.265625-11.304688-9.265625-18.679688zm112-40h-32v-64h-16v64h-16v-72h-17.695312l-45.046876 20.023438c-10.792968 4.792968-19.441406 12.816406-25.257812 22.5625-5.816406-9.753907-14.464844-17.769532-25.257812-22.5625l-45.046876-20.023438h-17.695312v72h-16v-64h-16v64h-32v-51.792969c0-17.765625 11.929688-33.582031 29.007812-38.464843l73.121094-20.886719 49.871094 41.558593 49.871094-41.558593 73.121094 20.886719c17.078124 4.882812 29.007812 20.699218 29.007812 38.464843zm-201.265625 58.679688c-33.957031-7.367188-65.160156-22.199219-91.804687-42.679688h77.070312c13.230469 0 24 10.769531 24 24 0 7.375-3.566406 14.167969-9.265625 18.679688zm89.265625-182.421876-40 33.328126-40-33.328126v-5.96875c12.015625 6.160157 25.59375 9.710938 40 9.710938s27.984375-3.550781 40-9.710938zm-40-12.257812c-39.695312 0-72-32.304688-72-72h48c8.824219 0 16-7.175781 16-16h16c0 8.824219 7.175781 16 16 16h48c0 39.695312-32.304688 72-72 72zm-104-96c0-10.414062 6.710938-19.214844 16-22.527344v45.046875c-9.289062-3.304687-16-12.105469-16-22.519531zm37.390625-75.816406c-12.894531 7.527344-21.175781 21.273437-21.351563 36.617187-5.960937 1.207031-11.351562 3.855469-16.039062 7.398438v-49.960938c9.910156 2.027344 22.433594 4.175781 37.390625 5.945313zm138.609375 83.816406h-48v-24h48zm0-40h-48c-8.824219 0-16 7.175781-16 16v8h-16v-8c0-8.824219-7.175781-16-16-16h-48v-6.703125c0-10.519531 6.039062-19.953125 15.335938-24.417969 26.585937 15.136719 56.679687 23.121094 87.3125 23.121094h41.351562zm-144 16h48v24h-48zm160-6.527344c9.289062 3.3125 16 12.113282 16 22.527344s-6.710938 19.214844-16 22.527344zm16-9.265625c-4.671875-3.535156-10.054688-6.183593-16-7.390625v-32.816406h-16v16h-41.351562c-25.359376 0-50.320313-6.023438-72.832032-17.496094 12.839844.929688 26.925782 1.496094 42.183594 1.496094 46.246094 0 81.742188-5.207031 104-9.761719zm-104-56.207031c-62.472656 0-105.414062-10.015625-120-14v-34h240v34c-14.585938 3.984375-57.527344 14-120 14zm-232 152c0-75.121094 35.625-144.34375 96-187.984375v33.753906l5.472656 1.824219c.519532.167969 4.144532 1.351562 10.527344 2.992188v85.414062c0 19.703125 14.351562 36.023438 33.425781 39.304688 3.703125 20.992187 14.789063 39.464843 30.574219 52.519531v14.136719l-71.382812 20.398437c-23.914063 6.832031-40.617188 28.976563-40.617188 53.847656v43.546875c-39.609375-41.640625-64-97.882812-64-159.753906zm201.34375 229.910156c4.222656-6.429687 6.65625-14 6.65625-21.910156 0-22.054688-17.945312-40-40-40h-8v-55.246094l40.246094 17.886719c14.425781 6.414063 23.753906 20.757813 23.753906 36.550781v40.808594h16v-40.808594c0-15.792968 9.328125-30.144531 23.753906-36.550781l40.246094-17.886719v55.246094h-8c-22.054688 0-40 17.945312-40 40 0 7.910156 2.433594 15.480469 6.65625 21.910156-10.039062 1.328125-20.257812 2.089844-30.65625 2.089844s-20.617188-.761719-30.65625-2.089844zm198.65625-70.15625v-43.546875c0-24.871093-16.703125-47.007812-40.617188-53.839843l-71.382812-20.398438v-14.136719c15.777344-13.046875 26.863281-31.511719 30.574219-52.496093 18.921875-3.160157 33.425781-19.535157 33.425781-39.335938v-85.414062c6.390625-1.640626 10.015625-2.824219 10.527344-2.992188l5.472656-1.824219v-45.769531c8.824219 0 16-7.175781 16-16h8c13.230469 0 24 10.769531 24 24v42.679688c-10.945312 7.648437-16 29.671874-16 37.320312 0 13.230469 10.769531 24 24 24 7.558594 0 14.230469-3.585938 18.632812-9.054688 13.953126 30.285157 21.367188 63.390626 21.367188 97.054688 0 61.871094-24.390625 118.113281-64 159.753906zm0 0"/></svg>