<svg height="480pt" viewBox="0 -16 480 480" width="480pt" xmlns="http://www.w3.org/2000/svg" xmlns:xlink="http://www.w3.org/1999/xlink"><linearGradient id="a"><stop offset="0" stop-color="#e93e3a"/><stop offset=".35" stop-color="#ed683c"/><stop offset=".7" stop-color="#f3903f"/><stop offset="1" stop-color="#fdc70c"/></linearGradient><linearGradient id="b" gradientUnits="userSpaceOnUse" x1="217.2" x2="214.872" xlink:href="#a" y1="481.584" y2="-17.64"/><linearGradient id="c" gradientUnits="userSpaceOnUse" x1="58.064" x2="55.736" xlink:href="#a" y1="482.32" y2="-16.896"/><linearGradient id="d" gradientUnits="userSpaceOnUse" x1="90.064" x2="87.736" xlink:href="#a" y1="482.176" y2="-17.048"/><linearGradient id="e" gradientUnits="userSpaceOnUse" x1="122.064" x2="119.736" xlink:href="#a" y1="482.024" y2="-17.2"/><linearGradient id="f" gradientUnits="userSpaceOnUse" x1="169.688" x2="167.36" xlink:href="#a" y1="481.8" y2="-17.416"/><linearGradient id="g" gradientUnits="userSpaceOnUse" x1="201.688" x2="199.36" xlink:href="#a" y1="481.656" y2="-17.568"/><linearGradient id="h" gradientUnits="userSpaceOnUse" x1="233.688" x2="231.36" xlink:href="#a" y1="481.504" y2="-17.72"/><linearGradient id="i" gradientUnits="userSpaceOnUse" x1="265.688" x2="263.352" xlink:href="#a" y1="481.352" y2="-17.872"/><linearGradient id="j" gradientUnits="userSpaceOnUse" x1="266.064" x2="263.728" xlink:href="#a" y1="481.352" y2="-17.872"/><linearGradient id="k" gradientUnits="userSpaceOnUse" x1="353.016" x2="350.68" xlink:href="#a" y1="480.944" y2="-18.28"/><linearGradient id="l" gradientUnits="userSpaceOnUse" x1="353.2" x2="350.864" xlink:href="#a" y1="480.944" y2="-18.28"/><linearGradient id="m" gradientUnits="userSpaceOnUse" x1="352.824" x2="350.496" xlink:href="#a" y1="480.944" y2="-18.272"/><linearGradient id="n" gradientUnits="userSpaceOnUse" x1="120.904" x2="118.576" xlink:href="#a" y1="482.032" y2="-17.192"/><path d="m416 424c0 4.417969-3.582031 8-8 8h-384c-4.417969 0-8-3.582031-8-8v-344h400v72h16v-128c0-13.253906-10.746094-24-24-24h-384c-13.253906 0-24 10.746094-24 24v400c0 13.253906 10.746094 24 24 24h384c13.253906 0 24-10.746094 24-24v-48h-16zm-392-408h384c4.417969 0 8 3.582031 8 8v40h-400v-40c0-4.417969 3.582031-8 8-8zm0 0" fill="url(#b)"/><path d="m48 32h16v16h-16zm0 0" fill="url(#c)"/><path d="m80 32h16v16h-16zm0 0" fill="url(#d)"/><path d="m112 32h16v16h-16zm0 0" fill="url(#e)"/><path d="m160 112h16v16h-16zm0 0" fill="url(#f)"/><path d="m192 112h16v16h-16zm0 0" fill="url(#g)"/><path d="m224 112h16v16h-16zm0 0" fill="url(#h)"/><path d="m256 112h16v16h-16zm0 0" fill="url(#i)"/><path d="m176 32h176v16h-176zm0 0" fill="url(#j)"/><path d="m456 168h-208c-13.253906 0-24 10.746094-24 24v144c0 13.253906 10.746094 24 24 24h40v40c0 3.234375 1.949219 6.152344 4.9375 7.390625s6.429688.550781 8.71875-1.734375l45.65625-45.65625h108.6875c13.253906 0 24-10.746094 24-24v-144c0-13.253906-10.746094-24-24-24zm8 168c0 4.417969-3.582031 8-8 8h-112c-2.121094 0-4.15625.84375-5.65625 2.34375l-34.34375 34.34375v-28.6875c0-4.417969-3.582031-8-8-8h-48c-4.417969 0-8-3.582031-8-8v-144c0-4.417969 3.582031-8 8-8h208c4.417969 0 8 3.582031 8 8zm0 0" fill="url(#k)"/><path d="m272 216h160v16h-160zm0 0" fill="url(#l)"/><path d="m272 256h160v16h-160zm0 0" fill="url(#k)"/><path d="m272 296h160v16h-160zm0 0" fill="url(#m)"/><path d="m113.34375 155.558594-32 48c-.875 1.316406-1.339844 2.863281-1.34375 4.441406v160c0 22.089844 17.910156 40 40 40s40-17.910156 40-40v-160c-.003906-1.578125-.46875-3.125-1.34375-4.441406l-32-48c-1.570312-2.097656-4.035156-3.332032-6.65625-3.332032s-5.085938 1.234376-6.65625 3.332032zm6.65625 18.839844 17.054688 25.601562h-34.109376zm-24 145.601562v-104h16v88h16v-88h16v104zm48 16v8h-48v-8zm-24 56c-13.253906 0-24-10.746094-24-24v-8h48v8c0 13.253906-10.746094 24-24 24zm0 0" fill="url(#n)"/></svg>